<svg width="20" height="21" viewBox="0 0 20 21" fill="none" xmlns="http://www.w3.org/2000/svg">
<path d="M16.9654 14.0706V6.9298C16.9655 6.79266 16.9294 6.65794 16.8608 6.53918C16.7922 6.42042 16.6936 6.3218 16.5748 6.25324L10.3907 2.68277C10.2719 2.61421 10.1372 2.57812 10.0001 2.57812C9.86292 2.57812 9.7282 2.61421 9.60943 2.68277L3.42529 6.25316C3.30653 6.32173 3.20791 6.42035 3.13934 6.53911C3.07077 6.65787 3.03467 6.79259 3.03467 6.92972V14.0706C3.03466 14.2077 3.07076 14.3424 3.13933 14.4612C3.2079 14.58 3.30653 14.6786 3.42529 14.7471L9.60943 18.3176C9.7282 18.3862 9.86292 18.4223 10.0001 18.4223C10.1372 18.4223 10.2719 18.3862 10.3907 18.3176L16.5748 14.7472C16.8165 14.6076 16.9654 14.3497 16.9654 14.0706Z" fill="#E63950"/>
<path d="M15.3132 13.2238V7.77658C15.3132 7.67198 15.2857 7.56921 15.2334 7.47862C15.1811 7.38802 15.1059 7.31279 15.0153 7.26049L10.2979 4.5369C10.2073 4.48458 10.1045 4.45703 9.99988 4.45703C9.89527 4.45703 9.7925 4.48458 9.70191 4.5369L4.98449 7.26049C4.8939 7.3128 4.81868 7.38803 4.76638 7.47862C4.71407 7.56921 4.68653 7.67198 4.68652 7.77658V13.2238C4.68652 13.3284 4.71406 13.4311 4.76636 13.5217C4.81867 13.6123 4.8939 13.6876 4.98449 13.7399L9.70191 16.4635C9.7925 16.5158 9.89527 16.5433 9.99988 16.5433C10.1045 16.5433 10.2073 16.5158 10.2979 16.4635L15.0153 13.7399C15.1059 13.6876 15.1811 13.6123 15.2334 13.5217C15.2857 13.4311 15.3132 13.3284 15.3132 13.2238Z" fill="#B7022D"/>
<path d="M3.50293 13.7742C3.41699 13.7742 3.34668 13.7039 3.34668 13.618V6.92969C3.34714 6.84746 3.36898 6.76676 3.41008 6.69553C3.45117 6.6243 3.51009 6.56499 3.58105 6.52344L9.76543 2.95312C9.9084 2.87109 10.092 2.87109 10.2342 2.95312L13.2521 4.69617C13.2881 4.71648 13.3146 4.75 13.3248 4.7907C13.3357 4.83133 13.3303 4.87352 13.3092 4.90945C13.2678 4.98055 13.1686 5.00797 13.0959 4.96648L10.0779 3.22336C10.0311 3.1968 9.96855 3.1968 9.92168 3.22336L3.7373 6.79445C3.68965 6.82188 3.65918 6.87492 3.65918 6.92961V13.618C3.65918 13.6594 3.64272 13.6992 3.61342 13.7285C3.58411 13.7578 3.54437 13.7742 3.50293 13.7742ZM13.7154 5.29992C13.6881 5.29992 13.6607 5.29211 13.6373 5.27883C13.6014 5.25766 13.5756 5.22414 13.5646 5.1843C13.5592 5.16445 13.5577 5.14371 13.5604 5.1233C13.5631 5.10289 13.5699 5.08322 13.5803 5.06547C13.6217 4.99359 13.7217 4.96625 13.7936 5.00852C13.8678 5.05148 13.8936 5.1468 13.8506 5.22172C13.8368 5.24542 13.8171 5.2651 13.7934 5.27882C13.7697 5.29254 13.7428 5.29982 13.7154 5.29992Z" fill="#E8566F"/>
<path d="M16.5748 6.25326L16.1725 6.021C16.1794 6.06287 16.1842 6.10537 16.1842 6.14865V13.2895C16.1842 13.4266 16.1481 13.5614 16.0795 13.6801C16.011 13.7989 15.9123 13.8975 15.7936 13.9661L9.60943 17.5365C9.49066 17.605 9.35594 17.6411 9.21881 17.6411C9.08167 17.6411 8.94695 17.605 8.82818 17.5365L3.04639 14.1983C3.06507 14.3122 3.10874 14.4204 3.17426 14.5153C3.23977 14.6103 3.3255 14.6895 3.42529 14.7473L9.60943 18.3177C9.7282 18.3863 9.86292 18.4224 10.0001 18.4224C10.1372 18.4224 10.2719 18.3863 10.3907 18.3177L16.5748 14.7473C16.6936 14.6788 16.7922 14.5801 16.8608 14.4614C16.9293 14.3426 16.9654 14.2079 16.9654 14.0708V6.9299C16.9654 6.65076 16.8165 6.39287 16.5748 6.25326Z" fill="#D10028"/>
<path d="M16.575 6.25326L16.5009 6.21045C16.5481 6.31201 16.575 6.42342 16.575 6.5392V13.6801C16.575 13.8172 16.5389 13.9519 16.4703 14.0707C16.4017 14.1894 16.3031 14.2881 16.1844 14.3566L10.0002 17.9271C9.88144 17.9956 9.74672 18.0317 9.60959 18.0317C9.47245 18.0317 9.33773 17.9956 9.21896 17.9271L3.10889 14.3994C3.17608 14.5452 3.28663 14.6667 3.42545 14.7472L9.60959 18.3177C9.72836 18.3863 9.86308 18.4224 10.0002 18.4224C10.1373 18.4224 10.2721 18.3863 10.3908 18.3177L16.575 14.7473C16.6937 14.6788 16.7924 14.5801 16.8609 14.4614C16.9295 14.3426 16.9656 14.2079 16.9656 14.0708V6.9299C16.9656 6.65076 16.8167 6.39287 16.575 6.25326Z" fill="#B7022D"/>
<path d="M9.99998 11.5285C9.46686 11.5285 9.03467 11.0963 9.03467 10.5631V7.3115C9.03467 6.77838 9.46686 6.34619 9.99998 6.34619C10.5331 6.34619 10.9653 6.77838 10.9653 7.3115V10.5631C10.9653 11.0963 10.5331 11.5285 9.99998 11.5285ZM9.99998 14.654C9.46686 14.654 9.03467 14.2218 9.03467 13.6887C9.03467 13.1556 9.46686 12.7234 9.99998 12.7234C10.5331 12.7234 10.9653 13.1556 10.9653 13.6887C10.9653 14.2218 10.5331 14.654 9.99998 14.654Z" fill="white"/>
</svg>
