<svg width="79" height="32" viewBox="0 0 79 32" fill="none" xmlns="http://www.w3.org/2000/svg">
<g clip-path="url(#clip0_1045_4147)">
<path d="M45.1807 0H50.7188C50.7253 3.34919 50.708 6.69838 50.7274 10.0454C48.9073 11.2108 47.0332 12.2919 45.1807 13.4054C45.1807 8.93838 45.1807 4.46919 45.1807 0Z" fill="#838383"/>
<path d="M52.8044 12.1254C54.6483 11.146 56.4814 10.1514 58.3102 9.1438C58.321 16.7135 58.3145 24.2811 58.3145 31.8508C56.4749 31.8508 54.6375 31.8508 52.7979 31.8508C52.8022 25.2757 52.7871 18.7006 52.8044 12.1254Z" fill="#838383"/>
<path d="M63.4406 9.93298C65.2888 8.94919 67.441 9.23028 69.451 9.18919C71.3876 9.24109 73.4321 8.95784 75.2544 9.7773C76.9646 10.5016 78.1421 12.1665 78.5001 13.9654V21.4811C78.3642 22.0368 78.1528 22.6292 77.6482 22.9514C76.9063 23.4422 75.9725 23.4119 75.1207 23.4573C72.0454 23.4789 68.9701 23.4551 65.8969 23.4681C65.9055 24.2897 65.9616 25.1935 66.5202 25.8487C67.0852 26.4757 67.9823 26.6465 68.7911 26.64C72.0281 26.6314 75.263 26.6378 78.5001 26.6357V31.9114C74.5449 31.9135 70.5897 31.9092 66.6345 31.9135C65.0494 31.933 63.4211 31.4249 62.2415 30.3373C60.9928 29.1697 60.3804 27.4292 60.4019 25.7384C60.4084 22.2011 60.4019 18.6616 60.4062 15.1243C60.4278 13.027 61.5341 10.8973 63.4406 9.93298ZM66.8976 14.9319C66.1147 15.427 65.9055 16.4368 65.9099 17.3016C65.912 19.0292 65.9012 20.7546 65.9163 22.4822C66.8544 21.1351 67.8012 19.7968 68.7156 18.4346C70.1907 18.4281 71.6658 18.4368 73.1409 18.4303C73.0525 17.3708 73.2466 16.1687 72.5371 15.28C71.8923 14.5103 70.8032 14.4887 69.8823 14.5038C68.886 14.5449 67.7753 14.346 66.8976 14.9319Z" fill="#838383"/>
<path d="M45.1611 16.3071C46.9899 15.2541 48.8683 14.2855 50.7208 13.2736C50.7187 19.4833 50.7208 25.693 50.7208 31.9028C48.8748 31.9222 47.0287 31.9071 45.1827 31.9114C45.1676 26.7092 45.2086 21.5071 45.1611 16.3071Z" fill="#838383"/>
<path d="M52.7981 1.48758C54.6355 1.48542 56.475 1.48542 58.3146 1.48758C58.3232 2.82812 58.306 4.16866 58.3254 5.50704C56.4923 6.62921 54.6463 7.72975 52.7959 8.8238C52.7959 6.37839 52.7959 3.93299 52.7981 1.48758Z" fill="#DD0A0A"/>
<path d="M22.6144 28.5124C24.4368 27.5027 26.2807 26.5319 28.1073 25.5265C28.103 27.6346 28.1439 29.7405 28.1202 31.8465C26.3001 31.8551 24.4799 31.8465 22.6576 31.853C22.567 30.7416 22.6425 29.6259 22.6144 28.5124Z" fill="#DD0A0A"/>
<path d="M22.6123 9.20429C24.3095 9.17402 26.0068 9.18699 27.704 9.1978C27.8593 10.4821 27.9779 11.7686 28.131 13.0529C28.9915 11.7643 29.8434 10.4692 30.7125 9.18699C32.552 9.19348 34.3916 9.18483 36.2312 9.18915C37.7559 9.19996 39.3475 9.56321 40.5336 10.5729C41.8405 11.6281 42.5133 13.3037 42.6212 14.9535C40.773 16.0497 38.9442 17.1762 37.0917 18.2637C37.1326 16.9405 36.5827 15.574 35.4958 14.7827C34.0077 13.7124 31.9353 13.6562 30.2855 14.3675C28.8794 14.9665 28.1332 16.5254 28.1181 18.0021C28.1008 19.8832 28.1095 21.7665 28.1159 23.6497C26.2936 24.7762 24.4411 25.8529 22.6188 26.9794C22.6145 21.0529 22.6252 15.1286 22.6123 9.20429Z" fill="#303030"/>
<path d="M0 9.18919C1.78997 9.18919 3.57995 9.18919 5.37207 9.18919C5.36992 13.5503 5.37423 17.9135 5.36776 22.2746C5.3807 23.1481 5.40658 24.0584 5.79908 24.8562C6.38783 26.2119 7.81981 27.0616 9.25826 27.1697C10.66 27.306 12.2279 27.053 13.2501 26C14.1127 25.1373 14.3845 23.8703 14.3802 22.6854C14.3845 18.1881 14.378 13.6887 14.3823 9.18919C16.2154 9.18919 18.0464 9.18487 19.8795 9.19352C19.8881 16.5103 19.873 23.8249 19.8859 31.1416C19.9097 31.4465 19.8514 31.7319 19.7113 32H14.8266C14.6088 30.6897 14.5247 29.3643 14.3629 28.0476C13.5132 29.3341 12.6549 30.6141 11.8117 31.9049C9.88798 31.9222 7.9643 31.907 6.04062 31.9135C4.51591 31.9157 2.94806 31.4443 1.80076 30.4108C0.828132 29.5308 0.146648 28.3027 0 26.9881V9.18919Z" fill="#303030"/>
<path d="M37.1391 20.6183C38.9808 19.6583 40.7924 18.6377 42.6255 17.6561C42.5996 22.4367 42.6858 27.2215 42.5802 31.9999H37.2038C37.1154 31.574 37.111 31.1372 37.1154 30.7048C37.1391 27.3426 37.0938 23.9805 37.1391 20.6183Z" fill="#303030"/>
<path opacity="0.5" d="M22.6572 31.8529C24.4795 31.8464 26.2997 31.8551 28.1199 31.8464L28.1177 32H22.7004L22.6572 31.8529Z" fill="#726F6F"/>
</g>
<defs>
<clipPath id="clip0_1045_4147">
<rect width="78.5" height="32" fill="white"/>
</clipPath>
</defs>
</svg>
