<svg width="32" height="32" viewBox="0 0 32 32" fill="none" xmlns="http://www.w3.org/2000/svg">
<path d="M8.80029 0.599609H21.6001C21.6971 0.599609 21.7903 0.638452 21.8589 0.707031L30.4927 9.3418C30.5611 9.41028 30.6 9.50278 30.6001 9.59961V28.7998C30.6001 30.2356 29.4362 31.4002 28.0005 31.4004H8.80029C7.36435 31.4004 6.19971 30.2357 6.19971 28.7998V3.2002C6.19971 1.76425 7.36435 0.599609 8.80029 0.599609Z" stroke="#D0D5DD" stroke-width="1.2"/>
<path d="M21.6001 0.400024V6.40003C21.6001 8.16734 23.0328 9.60002 24.8001 9.60002H30.8001" stroke="#D0D5DD" stroke-width="1.2"/>
<path d="M1.5 15.8C1.5 14.9164 2.21634 14.2 3.1 14.2H21.7C22.5837 14.2 23.3 14.9164 23.3 15.8V25.8C23.3 26.6837 22.5837 27.4 21.7 27.4H3.1C2.21635 27.4 1.5 26.6837 1.5 25.8V15.8Z" fill="#473BF0"/>
<path d="M4.44353 23.8V18.2H6.40353L7.37153 23.08H7.51553L8.48353 18.2H10.4435V23.8H9.41953V18.976H9.27553L8.31553 23.8H6.57153L5.61153 18.976H5.46753V23.8H4.44353ZM11.4982 23.8V18.2H13.8022C14.1542 18.2 14.4635 18.272 14.7302 18.416C15.0022 18.5547 15.2129 18.752 15.3622 19.008C15.5169 19.264 15.5942 19.568 15.5942 19.92V20.032C15.5942 20.3787 15.5142 20.6827 15.3542 20.944C15.1995 21.2 14.9862 21.4 14.7142 21.544C14.4475 21.6827 14.1435 21.752 13.8022 21.752H12.5542V23.8H11.4982ZM12.5542 20.792H13.6982C13.9489 20.792 14.1515 20.7227 14.3062 20.584C14.4609 20.4453 14.5382 20.256 14.5382 20.016V19.936C14.5382 19.696 14.4609 19.5067 14.3062 19.368C14.1515 19.2293 13.9489 19.16 13.6982 19.16H12.5542V20.792ZM18.7583 23.8V22.664H16.0063V21.48L17.9423 18.2H19.7823V21.752H20.7103V22.664H19.7823V23.8H18.7583ZM16.9823 21.752H18.7583V18.856H18.6143L16.9823 21.624V21.752Z" fill="white"/>
</svg>
