<svg width="13" height="15" viewBox="0 0 13 15" fill="none" xmlns="http://www.w3.org/2000/svg">
<path d="M11.353 10.25H12.5662V11.55H0.433838V10.25H1.64707V5.7C1.64707 4.32087 2.15836 2.99823 3.06847 2.02304C3.97857 1.04786 5.21293 0.5 6.50001 0.5C7.78709 0.5 9.02146 1.04786 9.93156 2.02304C10.8417 2.99823 11.353 4.32087 11.353 5.7V10.25ZM10.1397 10.25V5.7C10.1397 4.66566 9.75625 3.67368 9.07368 2.94228C8.3911 2.21089 7.46532 1.8 6.50001 1.8C5.5347 1.8 4.60893 2.21089 3.92635 2.94228C3.24378 3.67368 2.86031 4.66566 2.86031 5.7V10.25H10.1397ZM4.68016 12.85H8.31987V14.15H4.68016V12.85Z" fill="#4A5773"/>
</svg>
