<svg width="24" height="24" viewBox="0 0 24 24" fill="none" xmlns="http://www.w3.org/2000/svg">
<mask id="mask0_716_1636" style="mask-type:alpha" maskUnits="userSpaceOnUse" x="0" y="0" width="24" height="24">
<rect width="24" height="24" fill="#D9D9D9"/>
</mask>
<g mask="url(#mask0_716_1636)">
<path d="M10.9998 22C10.1665 21.9167 9.36647 21.7125 8.5998 21.3875C7.83314 21.0625 7.0998 20.6333 6.3998 20.1L7.7998 18.65C8.28314 19 8.79564 19.2833 9.3373 19.5C9.87897 19.7167 10.4331 19.8667 10.9998 19.95V22ZM12.9998 22V19.95C14.7331 19.7 16.1665 18.9208 17.2998 17.6125C18.4331 16.3042 18.9998 14.7833 18.9998 13.05C18.9998 11.1 18.3206 9.44582 16.9623 8.08749C15.604 6.72915 13.9498 6.04999 11.9998 6.04999H11.7998L13.3998 7.64999L11.9998 9.04999L7.9998 5.04999L11.9998 1.04999L13.3998 2.49999L11.8498 4.04999H11.9998C13.2498 4.04999 14.4206 4.28749 15.5123 4.76249C16.604 5.23749 17.554 5.87915 18.3623 6.68749C19.1706 7.49582 19.8123 8.44582 20.2873 9.53749C20.7623 10.6292 20.9998 11.8 20.9998 13.05C20.9998 15.3333 20.2415 17.3208 18.7248 19.0125C17.2081 20.7042 15.2998 21.7 12.9998 22ZM4.9498 18.65C4.41647 17.95 3.9873 17.2167 3.6623 16.45C3.3373 15.6833 3.13314 14.8833 3.0498 14.05H5.0998C5.18314 14.6167 5.33314 15.1708 5.5498 15.7125C5.76647 16.2542 6.0498 16.7667 6.3998 17.25L4.9498 18.65ZM3.0498 12.05C3.1498 11.2 3.35814 10.3833 3.6748 9.59999C3.99147 8.81665 4.41647 8.09999 4.9498 7.44999L6.3998 8.84999C6.0498 9.33332 5.76647 9.84582 5.5498 10.3875C5.33314 10.9292 5.18314 11.4833 5.0998 12.05H3.0498Z" fill="#667085"/>
</g>
</svg>
